. 
 
http://www.torrenting.com          :     Once & For all ;)


               www . Torrenting . Com 

(((((((((((((= Enjoy No RAR releases =))))))))))))))))))))


...................................NFO:....................................

.                                                                                                     
       
     
     
       
       
     
     
                                         
                                         
                EXVID                    
                                         
         
                                         
         Filled the Archives             
                                         
         
                                         
                With:                    
                                         
         
                                         
                                    
     E240                           
                                    
     SP               (C) 2009      
                                         
     
     
     
                                                                                  
                                                                                   
              Babys.Day.Out.1994.iNTERNAL.DVDRip.XviD-EXViDiNT                      
                                                                                   
                                                                                  
     
                                                                                               
EXViD aims to iNTERNAL those releases which have been lost in the archives.
EXViD aims to PRE non-internal releases which have poor sources and are likely skipped by others. 
http://www.imdb.com/title/tt0109190/
Subtitles: NL, EN, FR, DE, IT, ES
Date: 2012.01

Director: Patrick Read Johnson

Genres: Adventure | Comedy | Crime | Drama | Family

Plot:
Baby Bink couldn't ask for more; he has adoring (if somewhat sickly-sweet) parents, he lives in a
huge mansion, and he's just about to appear in the social pages of the paper. Unfortunately, not
everyone in the world is as nice as Baby Bink's parents; especially the three enterprising
kidnapers who pretend to be photographers from the newspaper. Successfully kidnaping Baby Bink,
they have a harder time keeping hold of the rascal, who not only keeps one step ahead of them,
but seems to be more than a little bit smarter than the three bumbling criminals.

Cast:
Joe Mantegna	...	Eddie
Lara Flynn Boyle	...	Laraine Cotwell
Joe Pantoliano	...	Norby
Brian Haley	...	Veeko
Cynthia Nixon	...	Gilbertine
Fred Dalton Thompson	...	FBI Agent Dale Grissom
John Neville	...	Mr. Andrews
Matthew Glave	...	Bennington Cotwell
Adam Robert Worton	...	Baby Bink #1
Jacob Joseph Worton	...	Baby Bink #2
Brigid Duffy	...	Sally
Guy Hadley	...	FBI Agent
Eddie Bracken	...	Old Timer
Kenneth L. Jordahl	...	Old Soldier #1
Raymond Henders	...	Old Soldier #2

Stats:
Format                                   : AVI
Format/Info                              : Audio Video Interleave
File size                                : 702 MiB
Duration                                 : 1h 34mn
Overall bit rate mode                    : Variable
Overall bit rate                         : 1 035 Kbps

Video
ID                                       : 0
Format                                   : MPEG-4 Visual
Format profile                           : Advanced Simple@L5
Format settings, BVOP                    : 2
Format settings, QPel                    : No
Format settings, GMC                     : No warppoints
Format settings, Matrix                  : Default (H.263)
Codec ID                                 : XVID
Codec ID/Hint                            : XviD
Duration                                 : 1h 34mn
Bit rate                                 : 889 Kbps
Width                                    : 624 pixels
Height                                   : 336 pixels
Display aspect ratio                     : 1.857
Frame rate                               : 25.000 fps
Color space                              : YUV
Chroma subsampling                       : 4:2:0
Bit depth                                : 8 bits
Scan type                                : Progressive
Compression mode                         : Lossy
Bits/(Pixel*Frame)                       : 0.170
Stream size                              : 603 MiB (86%)
Writing library                          : XviD 64

Audio
ID                                       : 1
Format                                   : MPEG Audio
Format version                           : Version 1
Format profile                           : Layer 3
Mode                                     : Joint stereo
Mode extension                           : MS Stereo
Codec ID                                 : 55
Codec ID/Hint                            : MP3
Duration                                 : 1h 34mn
Bit rate mode                            : Variable
Bit rate                                 : 133 Kbps
Channel(s)                               : 2 channels
Sampling rate                            : 48.0 KHz
Compression mode                         : Lossy
Stream size                              : 90.4 MiB (13%)
Alignment                                : Aligned on interleaves
Interleave, duration                     : 24 ms (0.60 video frame)
Interleave, preload duration             : 121 ms
Writing library                          : LAME3.98.4



Release notes:
Enjoy!

Looking for:
75TB+ Archives
DUTCH/FLEMiSH Archives
                                                                                                    
Greets: CRBS EPiSODE FiCO FLS iLS KLASSiGER LiPSYNC MADE NODLABS RUNNER SPRiNTER      
   

                                                                    ASCII DONE BY XX^NFO 2oo9